<?xml version="1.0" encoding="UTF-8"?>
<svg xmlns="http://www.w3.org/2000/svg" xmlns:xlink="http://www.w3.org/1999/xlink" id="Layer_2" data-name="Layer 2" viewBox="0 0 461.88 265.41">
  <defs>
    <style>
      .cls-1 {
        fill: #112b7d;
      }

      .cls-2 {
        fill: #07f3ef;
      }

      .cls-3 {
        fill: url(#linear-gradient-8);
      }

      .cls-4 {
        fill: url(#linear-gradient-7);
      }

      .cls-5 {
        fill: url(#linear-gradient-5);
      }

      .cls-6 {
        fill: url(#linear-gradient-6);
      }

      .cls-7 {
        fill: url(#linear-gradient-4);
      }

      .cls-8 {
        fill: url(#linear-gradient-3);
      }

      .cls-9 {
        fill: url(#linear-gradient-2);
      }

      .cls-10 {
        fill: url(#linear-gradient);
      }

      .cls-11 {
        fill: #fff;
      }

      .cls-12 {
        fill: #be38ec;
      }
    </style>
    <linearGradient id="linear-gradient" x1="42.24" y1="202.03" x2="227.89" y2="202.03" gradientUnits="userSpaceOnUse">
      <stop offset="0" stop-color="#37a3d2"></stop>
      <stop offset="1" stop-color="#37a3cd"></stop>
    </linearGradient>
    <linearGradient id="linear-gradient-2" x1="8.12" y1="222.2" x2="221.89" y2="222.2" gradientUnits="userSpaceOnUse">
      <stop offset="0" stop-color="#2478b9"></stop>
      <stop offset="1" stop-color="#37a3cd"></stop>
    </linearGradient>
    <linearGradient id="linear-gradient-3" x1="230.24" y1="220.88" x2="418.2" y2="170.52" gradientUnits="userSpaceOnUse">
      <stop offset="0" stop-color="#c2c3c4"></stop>
      <stop offset="1" stop-color="#e6e6e6"></stop>
    </linearGradient>
    <linearGradient id="linear-gradient-4" x1="240.01" y1="222.2" x2="453.77" y2="222.2" xlink:href="#linear-gradient-3"></linearGradient>
    <linearGradient id="linear-gradient-5" x1="183.53" y1="201.61" x2="183.53" y2="83.86" xlink:href="#linear-gradient-2"></linearGradient>
    <linearGradient id="linear-gradient-6" x1="278.35" y1="87.75" x2="278.35" y2="199.52" gradientUnits="userSpaceOnUse">
      <stop offset="0" stop-color="#be38ec"></stop>
      <stop offset="1" stop-color="#360f8e"></stop>
    </linearGradient>
    <linearGradient id="linear-gradient-7" x1="230.94" y1="231.06" x2="230.94" y2="31.9" gradientUnits="userSpaceOnUse">
      <stop offset="0" stop-color="#0f2f7e"></stop>
      <stop offset=".26" stop-color="#0b629c"></stop>
      <stop offset="1" stop-color="#01f3f1"></stop>
    </linearGradient>
    <linearGradient id="linear-gradient-8" x1="177.26" y1="72.39" x2="205.16" y2="72.39" xlink:href="#linear-gradient"></linearGradient>
  </defs>
  <g id="Layer_1-2" data-name="Layer 1">
    <g>
      <path class="cls-1" d="M230.35,265.4c.06,0,.12,0,.19,0-.07,0-.13,0-.19,0"></path>
      <g>
        <path class="cls-10" d="M42.24,187.7c15.41-10.12,30.82-20.24,46.24-30.35,35.04,5.47,61.42,16.27,78.35,24.71,31.65,15.77,42.64,29.43,47.29,36,7.66,10.79,11.62,21.29,13.76,28.65-7.46-7.53-19-17.77-34.94-26.89-14.34-8.2-29.22-13.78-56.12-19.76-22.72-5.06-54.77-10.58-94.59-12.35Z"></path>
        <path class="cls-9" d="M8.12,225.82c16.99-2.25,41.01-4.68,70.12-5.18,12.71-.22,22.35-.36,35.65.59,37.26,2.64,64.36,11.02,73.76,14.12,9.44,3.11,21.15,7.51,34.24,13.76-6.12-6.33-15.96-15.37-29.76-23.41-19.57-11.4-37.82-15.4-107.06-24.5-12.8-1.68-28.6-3.71-46.76-5.91-10.06,10.18-20.12,20.35-30.18,30.53Z"></path>
        <path class="cls-1" d="M461.88,240.15c-20.74-2.42-41.57-3.77-62.43-4.59-10.59-.42-21.19-.6-31.79-.43-37.39.61-74.36,6.13-109.6,18.93-1.5.55-2.85,1.39-3.99,2.5-6.08,5.94-14.59,9.07-23.03,8.84h-.19c-8.44.23-16.95-2.9-23.03-8.84-1.14-1.11-2.5-1.95-4-2.5-35.24-12.8-72.2-18.32-109.6-18.93-10.6-.17-21.2.01-31.79.43-20.86.82-41.69,2.17-62.43,4.59,3.87-.45,8.14-2.53,11.92-3.58,4.4-1.21,8.83-2.27,13.29-3.2,35.53-7.37,73.17-6.21,109.12-2.17,15.39,1.72,30.69,4.35,45.71,8.12,7.58,1.9,15.18,4,22.55,6.62,8.59,3.04,16.4,9.3,25.05,10.67h.02c.49.08.97.15,1.45.18.24.03.48.05.73.06.35.02.7.03,1.04.03.39,0,.77,0,1.16-.03.25-.02.49-.03.73-.06.49-.04.97-.1,1.45-.18h.02c8.65-1.37,16.46-7.63,25.06-10.67,7.37-2.62,14.96-4.72,22.54-6.62,15.03-3.77,30.33-6.4,45.71-8.12,35.95-4.04,73.59-5.2,109.12,2.17,4.46.93,8.9,1.99,13.29,3.2,3.78,1.05,8.05,3.13,11.92,3.58Z"></path>
        <path class="cls-8" d="M419.65,187.7c-15.41-10.12-30.82-20.24-46.24-30.35-35.04,5.47-61.42,16.27-78.35,24.71-31.65,15.77-42.64,29.43-47.29,36-7.66,10.79-11.62,21.29-13.76,28.65,7.46-7.53,19-17.77,34.94-26.89,14.34-8.2,29.22-13.78,56.12-19.76,22.72-5.06,54.77-10.58,94.59-12.35Z"></path>
        <path class="cls-7" d="M453.77,225.82c-16.99-2.25-41.01-4.68-70.12-5.18-12.71-.22-22.35-.36-35.65.59-37.26,2.64-64.36,11.02-73.76,14.12-9.44,3.11-21.15,7.51-34.24,13.76,6.12-6.33,15.96-15.37,29.76-23.41,19.57-11.4,37.82-15.4,107.06-24.5,12.8-1.68,28.6-3.71,46.76-5.91,10.06,10.18,20.12,20.35,30.18,30.53Z"></path>
      </g>
      <path class="cls-5" d="M207.24,83.86v117.75c-1.91-1.8-3.94-3.6-6.1-5.38-15.42-12.67-30.96-18.8-41.31-21.84v-44.38c3.89-10.89,10.91-24.13,23.78-34.18,6.93-5.41,14.93-9.41,23.63-11.97Z"></path>
      <path class="cls-6" d="M302.05,87.75v84.46c-10.65,3.33-26.63,9.89-42.57,23.08-1.69,1.4-3.3,2.81-4.84,4.23v-71.74c4.2-9.25,10.74-19.28,20.99-27.29,7.67-5.98,16.63-10.24,26.42-12.74Z"></path>
      <path class="cls-4" d="M235.89,40.02c-2.08,1.29-4.09,2.68-6.01,4.18-.21.17-.43.34-.64.52h0c-11.31,9.06-17.99,20.58-21.99,30.63v126.26c11.48,10.87,18.52,21.96,22.57,29.45,4.5-8.12,12.27-20,24.84-31.54V31.9c-6.72,1.87-13.02,4.58-18.76,8.12Z"></path>
      <path class="cls-12" d="M299.27,82.88c-10.12,2.47-19.39,6.79-27.27,12.95-.2.16-.41.32-.61.49l-.09-8.27-.03-3.51-.22-19.7-.06-5.67-.03-2.99,3.14,2.96,5.79,5.46,19.38,18.28Z"></path>
      <path class="cls-2" d="M250.44,26.32c-9.34,2.53-17.9,6.68-25.26,12.43-.45.35-.89.71-1.33,1.07-.29.24-.58.48-.87.74v-.7s-.44-39.86-.44-39.86l27.9,26.32Z"></path>
      <path class="cls-3" d="M205.16,78.43c-9.34,2.53-17.9,6.68-25.26,12.43-.75.59-1.49,1.19-2.2,1.81l-.44-40.56,27.9,26.32Z"></path>
      <path class="cls-11" d="M195.6,153.82l-19.83-3.5v18.4l22.1,3.9v5.53l-28.69-5.06v-51.02l27.56,4.86v5.53l-20.97-3.7v16.12l19.83,3.5v5.45Z"></path>
      <path class="cls-11" d="M243.43,130.78v39.03c0,2.87.07,6.14.27,8.34h-5.27l-.27-5.6h-.13c-1.8,3.6-5.74,6.34-11.01,6.34-7.81,0-13.81-6.6-13.81-16.41-.07-10.74,6.6-17.34,14.48-17.34,4.94,0,8.27,2.33,9.74,4.94h.13v-19.28h5.87ZM237.56,159c0-.73-.07-1.73-.27-2.47-.87-3.74-4.07-6.8-8.47-6.8-6.07,0-9.67,5.34-9.67,12.48,0,6.54,3.2,11.94,9.54,11.94,3.94,0,7.54-2.6,8.61-7,.2-.8.27-1.6.27-2.54v-5.6Z"></path>
      <path class="cls-11" d="M293.98,155.64c0,3.34.07,6.26.27,8.76l-5.2.92-.33-5.21-.13.02c-1.53,2.87-4.94,6.87-10.67,7.89-5.07.89-11.14-.84-11.14-12.18v-18.88l5.87-1.04v17.88c0,6.14,1.87,9.94,7.2,9,3.94-.69,6.67-3.91,7.74-6.7.33-.93.53-2.03.53-3.1v-19.81l5.87-1.04v23.48Z"></path>
    </g>
  </g>
</svg>
